<?xml version="1.0" encoding="UTF-8"?>
<svg version="1.1" xmlns="http://www.w3.org/2000/svg" width="172" height="150">
<path d="M0 0 C6.70290078 0.52571771 9.60264999 2.53415427 14.1875 7.25 C15.81989123 9.2315315 15.81989123 9.2315315 18 9 C18 9.66 18 10.32 18 11 C18.90492187 11.05607422 18.90492187 11.05607422 19.828125 11.11328125 C24.53493631 11.50045444 27.33340776 11.85720665 31 15 C33.64934822 15.71433121 33.64934822 15.71433121 36 16 C36 16.66 36 17.32 36 18 C36.928125 18.103125 37.85625 18.20625 38.8125 18.3125 C42.18226926 19.03931298 42.86700246 19.47918472 45 22 C45.5775 22.433125 46.155 22.86625 46.75 23.3125 C51.76347534 27.0726065 55.97724074 30.40789537 59 36 C59.9793879 37.02019573 60.97895449 38.02149805 62 39 C63.04115841 40.30144802 64.03886134 41.63838689 65 43 C65.495 43.680625 65.99 44.36125 66.5 45.0625 C68.31130684 48.60964256 69.21020619 52.13090025 70.15625 55.98828125 C70.97492944 59.1621252 70.97492944 59.1621252 72.5703125 62.67578125 C74.49012065 67.70427503 74.44094312 72.54826154 74.375 77.875 C74.38660156 78.80441406 74.39820313 79.73382813 74.41015625 80.69140625 C74.38263988 87.26781804 73.17667338 92.81521626 71 99 C70.54753906 100.423125 70.54753906 100.423125 70.0859375 101.875 C69.85132813 102.57625 69.61671875 103.2775 69.375 104 C69.13523438 104.721875 68.89546875 105.44375 68.6484375 106.1875 C68 108 68 108 67 110 C66.34 110 65.68 110 65 110 C64.67 111.65 64.34 113.3 64 115 C63.34 115 62.68 115 62 115 C62 115.99 62 116.98 62 118 C60.38161281 119.71358643 58.70328319 121.3707726 57 123 C55.45007569 124.82891069 53.93220822 126.67887627 52.4296875 128.546875 C51 130 51 130 48 131 C46.97803008 131.97753644 45.98020375 132.9805881 45 134 C41.38579751 137.07876509 37.24266599 138.9484207 33 141 C31.4221875 141.804375 31.4221875 141.804375 29.8125 142.625 C28.884375 143.07875 27.95625 143.5325 27 144 C26.33355469 144.34546875 25.66710937 144.6909375 24.98046875 145.046875 C20.53514297 146.46844707 16.14252641 146.47674271 11.5 146.625 C10.51547852 146.66004639 9.53095703 146.69509277 8.51660156 146.73120117 C6.56134926 146.79758716 4.60593814 146.8594726 2.65039062 146.91650391 C0.43789283 146.98620492 -1.77354139 147.08867707 -3.984375 147.19921875 C-11.27636425 147.45217053 -16.4715367 146.18831929 -23 143 C-24.62345694 142.28813718 -26.24841168 141.57967833 -27.875 140.875 C-29.25415205 140.25921624 -30.62941711 139.63462788 -32 139 C-33.08667969 138.50886719 -33.08667969 138.50886719 -34.1953125 138.0078125 C-36 137 -36 137 -37 135 C-37.825 134.67 -38.65 134.34 -39.5 134 C-42 133 -42 133 -43 131 C-44.08194243 130.05720502 -45.1900153 129.14414199 -46.3125 128.25 C-49.58923696 125.50933453 -51.73459212 122.64083409 -54 119 C-54.515625 118.484375 -55.03125 117.96875 -55.5625 117.4375 C-60.14034947 112.85965053 -63.62454737 105.3018187 -65 99 C-65.33 99 -65.66 99 -66 99 C-69.1957043 86.55957968 -70.32688022 69.31291222 -66 57 C-65.01 56.505 -65.01 56.505 -64 56 C-63.31526605 53.67190457 -62.65146849 51.33762223 -62 49 C-59.42857143 43.21428571 -59.42857143 43.21428571 -57 42 C-56.855625 41.38125 -56.71125 40.7625 -56.5625 40.125 C-55.8960824 37.6074224 -54.88970557 36.7322301 -53 35 C-52.67 34.34 -52.34 33.68 -52 33 C-51.34 33 -50.68 33 -50 33 C-50 32.34 -50 31.68 -50 31 C-47.11811567 27.71785396 -45.24811568 25.9103105 -41 25 C-40.67 24.01 -40.34 23.02 -40 22 C-39.01 21.67 -38.02 21.34 -37 21 C-36.54625 20.54625 -36.0925 20.0925 -35.625 19.625 C-32.16048044 16.16048044 -28.72424677 14.87025598 -24 14 C-23.01 13.34 -22.02 12.68 -21 12 C-19.80375 11.835 -18.6075 11.67 -17.375 11.5 C-16.26125 11.335 -15.1475 11.17 -14 11 C-13.67 10.34 -13.34 9.68 -13 9 C-10.69 9 -8.38 9 -6 9 C-6 8.01 -6 7.02 -6 6 C-4.37064759 4.62131719 -2.70250393 3.28725907 -1 2 C-0.67 1.34 -0.34 0.68 0 0 Z " fill="#4E3A00" transform="translate(82,3)"/>
<path d="M0 0 C0.66 0 1.32 0 2 0 C2 0.66 2 1.32 2 2 C3.32 1.67 4.64 1.34 6 1 C6 3.64 6 6.28 6 9 C4.85724609 9.41958984 4.85724609 9.41958984 3.69140625 9.84765625 C-7.23808039 14.09118976 -15.52188844 19.33935844 -21 30 C-22.00674926 32.87319901 -22.00674926 32.87319901 -22 36 C-22.0721875 36.80050781 -22.144375 37.60101563 -22.21875 38.42578125 C-22.59610055 45.09545224 -21.1826638 49.27432305 -18.16796875 55.16015625 C-16.5137156 59.18237044 -16.39405913 62.96081253 -16.3359375 67.2734375 C-15.9406184 70.4819576 -14.74349169 72.31557628 -13 75 C-13 75.66 -13 76.32 -13 77 C-12.34 77 -11.68 77 -11 77 C-10.89042969 77.73605469 -10.78085937 78.47210938 -10.66796875 79.23046875 C-9.8019103 84.56060084 -8.89204231 88.3990236 -6 93 C-5.5 96 -5.5 96 -6 99 C-9.09884562 102.91912829 -12.42182332 105.06699207 -17 107 C-17.66 107 -18.32 107 -19 107 C-19.32613618 102.32538149 -18.70582788 99.83325617 -16 96 C-18.97 96.99 -18.97 96.99 -22 98 C-22.33 99.98 -22.66 101.96 -23 104 C-23.66 103.67 -24.32 103.34 -25 103 C-25.05386629 100.87527424 -25.09273071 98.75016348 -25.125 96.625 C-25.14820312 95.44164063 -25.17140625 94.25828125 -25.1953125 93.0390625 C-25 90 -25 90 -23 88 C-22.01 88 -21.02 88 -20 88 C-20 88.99 -20 89.98 -20 91 C-19.01 90.67 -18.02 90.34 -17 90 C-16.74969023 87.58380177 -16.74969023 87.58380177 -17 85 C-19.75698184 82.71861055 -19.75698184 82.71861055 -22.5625 83.1875 C-25.33255117 83.83372442 -25.33255117 83.83372442 -27 87 C-27.38499891 88.65549531 -27.72793135 90.3222433 -28 92 C-28.66 92 -29.32 92 -30 92 C-30.375 89.4375 -30.375 89.4375 -30 86 C-28.58443397 84.13808432 -27.01134167 82.5085731 -25.40234375 80.8125 C-23.1925657 77.95640804 -23.14486721 75.54924676 -23 72 C-26.58026555 73.88435029 -28.69955117 75.09865351 -30 79 C-30.38749213 81.32495277 -30.72982839 83.65851268 -31 86 C-31.66 86 -32.32 86 -33 86 C-33.49767099 76.87603179 -30.78731137 68.77938098 -26 61 C-25.46375 60.49210937 -24.9275 59.98421875 -24.375 59.4609375 C-22.65731765 57.97027186 -22.65731765 57.97027186 -23 55 C-23.66 54.67 -24.32 54.34 -25 54 C-25.268125 54.55042969 -25.53625 55.10085937 -25.8125 55.66796875 C-27.13344132 58.26205418 -28.56657713 60.77892507 -30 63.3125 C-35.01826283 72.59016641 -36.7065903 81.23955859 -34.08984375 91.60546875 C-31.75514414 98.60956759 -29.09743007 104.61092593 -24 110 C-23.52304687 110.51691406 -23.04609375 111.03382812 -22.5546875 111.56640625 C-14.47425782 119.34229712 -3.48927133 123.4247867 7.35546875 125.296875 C10.16629727 126.04421493 11.29268555 126.67664426 13 129 C13 129.66 13 130.32 13 131 C10.99722415 130.68377223 8.99810662 130.34450114 7 130 C6.29617187 129.91234375 5.59234375 129.8246875 4.8671875 129.734375 C-8.93872394 127.63842805 -22.03016274 119.56597985 -30.375 108.5 C-33.1824148 104.42256423 -35.38286763 100.67171573 -37 96 C-37.391875 94.989375 -37.78375 93.97875 -38.1875 92.9375 C-41.17333705 81.58111123 -38.85030667 70.92180131 -33.28125 60.91015625 C-28.59699435 53.19899812 -28.59699435 53.19899812 -25 52 C-25 50.35 -25 48.7 -25 47 C-34.25341687 54.14097431 -39.72058894 63.4604815 -42 75 C-42.87948639 89.37621986 -40.50834286 101.82841664 -31.1484375 113.26171875 C-21.40348656 123.4531515 -9.30358297 129.25781131 4.31640625 132.375 C7.28299966 133.06590967 10.13569901 133.96566909 13 135 C13 135.66 13 136.32 13 137 C4.08969406 138.2848717 -1.95982285 138.04680013 -10 134 C-11.62251432 133.28599133 -13.24744632 132.57744581 -14.875 131.875 C-16.25415205 131.25921624 -17.62941711 130.63462788 -19 130 C-20.08667969 129.50886719 -20.08667969 129.50886719 -21.1953125 129.0078125 C-23 128 -23 128 -24 126 C-24.825 125.67 -25.65 125.34 -26.5 125 C-29 124 -29 124 -30 122 C-31.08194243 121.05720502 -32.1900153 120.14414199 -33.3125 119.25 C-36.58923696 116.50933453 -38.73459212 113.64083409 -41 110 C-41.515625 109.484375 -42.03125 108.96875 -42.5625 108.4375 C-47.14034947 103.85965053 -50.62454737 96.3018187 -52 90 C-52.33 90 -52.66 90 -53 90 C-56.1957043 77.55957968 -57.32688022 60.31291222 -53 48 C-52.01 47.505 -52.01 47.505 -51 47 C-50.31526605 44.67190457 -49.65146849 42.33762223 -49 40 C-46.42857143 34.21428571 -46.42857143 34.21428571 -44 33 C-43.7834375 32.071875 -43.7834375 32.071875 -43.5625 31.125 C-42.8960824 28.6074224 -41.88970557 27.7322301 -40 26 C-39.67 25.34 -39.34 24.68 -39 24 C-38.34 24 -37.68 24 -37 24 C-37 23.34 -37 22.68 -37 22 C-34.11811567 18.71785396 -32.24811568 16.9103105 -28 16 C-27.67 15.01 -27.34 14.02 -27 13 C-26.01 12.67 -25.02 12.34 -24 12 C-23.319375 11.319375 -23.319375 11.319375 -22.625 10.625 C-19.16048044 7.16048044 -15.72424677 5.87025598 -11 5 C-10.01 4.34 -9.02 3.68 -8 3 C-6.80375 2.835 -5.6075 2.67 -4.375 2.5 C-2.704375 2.2525 -2.704375 2.2525 -1 2 C-0.67 1.34 -0.34 0.68 0 0 Z " fill="#D69E00" transform="translate(69,12)"/>
<path d="M0 0 C0 0.66 0 1.32 0 2 C0.60328125 2.03738281 1.2065625 2.07476562 1.828125 2.11328125 C6.53493631 2.50045444 9.33340776 2.85720665 13 6 C15.64934822 6.71433121 15.64934822 6.71433121 18 7 C18 7.66 18 8.32 18 9 C18.928125 9.103125 19.85625 9.20625 20.8125 9.3125 C24.18226926 10.03931298 24.86700246 10.47918472 27 13 C27.5775 13.433125 28.155 13.86625 28.75 14.3125 C33.76347534 18.0726065 37.97724074 21.40789537 41 27 C41.9793879 28.02019573 42.97895449 29.02149805 44 30 C45.04115841 31.30144802 46.03886134 32.63838689 47 34 C47.495 34.680625 47.99 35.36125 48.5 36.0625 C50.31130684 39.60964256 51.21020619 43.13090025 52.15625 46.98828125 C52.97492944 50.1621252 52.97492944 50.1621252 54.5703125 53.67578125 C56.49012065 58.70427503 56.44094312 63.54826154 56.375 68.875 C56.38660156 69.80441406 56.39820313 70.73382813 56.41015625 71.69140625 C56.38263988 78.26781804 55.17667338 83.81521626 53 90 C52.69835937 90.94875 52.39671875 91.8975 52.0859375 92.875 C51.85132813 93.57625 51.61671875 94.2775 51.375 95 C51.13523437 95.721875 50.89546875 96.44375 50.6484375 97.1875 C50 99 50 99 49 101 C48.34 101 47.68 101 47 101 C46.67 102.65 46.34 104.3 46 106 C45.34 106 44.68 106 44 106 C44 106.99 44 107.98 44 109 C42.38161281 110.71358643 40.70328319 112.3707726 39 114 C37.45007569 115.82891069 35.93220822 117.67887627 34.4296875 119.546875 C33 121 33 121 30 122 C28.97803008 122.97753644 27.98020375 123.9805881 27 125 C23.38579751 128.07876509 19.24266599 129.9484207 15 132 C13.4221875 132.804375 13.4221875 132.804375 11.8125 133.625 C10.884375 134.07875 9.95625 134.5325 9 135 C8.3296875 135.34546875 7.659375 135.6909375 6.96875 136.046875 C2.58832774 137.45322109 -1.73719815 137.46979541 -6.3125 137.625 C-7.24384766 137.66367188 -8.17519531 137.70234375 -9.13476562 137.7421875 C-11.42298407 137.83606313 -13.71120295 137.92174509 -16 138 C-16.33 137.34 -16.66 136.68 -17 136 C-12.76235604 134.50171314 -8.59395534 133.43785645 -4.1875 132.5625 C11.04920936 129.35814472 24.9441348 123.41086876 35 111 C42.79254071 98.54984874 46.14716357 86.30494554 43.3515625 71.5859375 C41.21683709 63.94106617 37.86951167 57.28478846 33 51 C32.01 50.505 32.01 50.505 31 50 C31 49.34 31 48.68 31 48 C30.01 48.33 29.02 48.66 28 49 C29.45924941 52.17133907 31.27572814 54.78027726 33.375 57.5625 C40.65926238 68.02507311 42.59333095 78.46738192 41 91 C38.11174139 103.77499 29.97191719 114.05111912 19 121 C18.07574219 121.64001953 18.07574219 121.64001953 17.1328125 122.29296875 C9.96266681 126.82662118 -1.44962749 131 -10 131 C-8.50835448 127.25941201 -8.50835448 127.25941201 -6.29296875 126.12890625 C-5.59816406 125.94199219 -4.90335938 125.75507813 -4.1875 125.5625 C11.28041537 120.92959781 24.38017959 115.30591929 32.83203125 100.87109375 C37.66586967 90.92040528 39.08587148 81.15833167 35.96875 70.4609375 C34.42543741 66.59324559 32.85147328 63.1246626 30.33203125 59.796875 C29 58 29 58 29 56 C27.68 55.67 26.36 55.34 25 55 C25.30292969 55.52207031 25.60585937 56.04414062 25.91796875 56.58203125 C27.31490246 59.03633632 28.66393218 61.51202506 30 64 C30.47695312 64.87785156 30.95390625 65.75570312 31.4453125 66.66015625 C34.78809541 73.29796803 35.64366419 78.60501367 35 86 C32.75639253 83.75639253 32.49166766 82.56702825 31.6875 79.5625 C30.61311603 76.11782561 30.2774008 75.21288899 27.3125 72.9375 C26.1678125 72.4734375 26.1678125 72.4734375 25 72 C26.14755256 78.12659618 26.14755256 78.12659618 29.625 83.125 C32 86 32 86 32.3125 89.375 C32.1578125 90.674375 32.1578125 90.674375 32 92 C30 89 30 89 28.6875 86.375 C27.19691317 83.80774223 27.19691317 83.80774223 24.5 83.0625 C21.74605843 82.75378427 21.74605843 82.75378427 19 85 C19.34444881 87.47266765 19.34444881 87.47266765 20 90 C20.99 90.495 20.99 90.495 22 91 C22 90.01 22 89.02 22 88 C24.86724686 88.57344937 25.8614515 88.8614515 28 91 C28.265625 93.09375 28.265625 93.09375 28.25 95.5 C28.25773437 96.69109375 28.25773437 96.69109375 28.265625 97.90625 C28 100 28 100 26 102 C25.5875 101.195625 25.175 100.39125 24.75 99.5625 C23.26547669 96.85890282 23.26547669 96.85890282 20.8125 96.1875 C19.9153125 96.0946875 19.9153125 96.0946875 19 96 C20.08784968 99.24983135 20.08784968 99.24983135 22 102 C22.04063832 103.66617115 22.042721 105.33388095 22 107 C16.62829883 106.36803516 12.85586149 103.91772354 9.125 100.0625 C7.68564034 97.42367395 7.56503335 95.97227208 8 93 C8.680625 91.9171875 8.680625 91.9171875 9.375 90.8125 C10.99778317 88.00383682 11.41385642 86.21379653 11.9375 83.0625 C12.75036548 78.39373417 14.23110895 75.7841511 17 72 C17 71.01 17 70.02 17 69 C15.68 69.99 14.36 70.98 13 72 C13 69.03 13 66.06 13 63 C14.32 63 15.64 63 17 63 C17.69752536 61.39569168 18.39058226 59.78935144 19.06640625 58.17578125 C19.7083773 56.67963951 20.38508691 55.19808067 21.08984375 53.73046875 C24.3055668 46.64672297 25.43072169 39.5479064 23.45703125 31.89453125 C22.68368986 29.84777235 22.68368986 29.84777235 21 27 C20.443125 25.989375 19.88625 24.97875 19.3125 23.9375 C15.98842756 19.71502961 11.82038535 16.41019267 7 14 C7 13.34 7 12.68 7 12 C5.9275 11.87625 4.855 11.7525 3.75 11.625 C0.62136385 11.10356064 -1.33480424 10.59911746 -4 9 C-4 6.36 -4 3.72 -4 1 C-2 0 -2 0 0 0 Z " fill="#D59C00" transform="translate(100,12)"/>
<path d="M0 0 C5.79642618 2.92042162 10.93542888 7.05194571 16.0390625 11.02734375 C16.85503906 11.65898438 17.67101562 12.290625 18.51171875 12.94140625 C22.86386194 16.99864035 23.54045424 20.50085712 23.7890625 26.40234375 C23.48735472 33.25248186 21.79462739 38.32693276 18.0390625 44.02734375 C19.0290625 44.02734375 20.0190625 44.02734375 21.0390625 44.02734375 C21.0390625 44.68734375 21.0390625 45.34734375 21.0390625 46.02734375 C16.18071717 45.58567599 14.28583157 44.59878973 11.0390625 41.02734375 C10.3171875 40.67671875 9.5953125 40.32609375 8.8515625 39.96484375 C7.0390625 39.02734375 7.0390625 39.02734375 6.0390625 36.02734375 C5.7090625 36.68734375 5.3790625 37.34734375 5.0390625 38.02734375 C2.81045731 39.48746439 1.64563112 40.11924809 -1.0234375 39.71484375 C-1.6628125 39.48796875 -2.3021875 39.26109375 -2.9609375 39.02734375 C-4.4459375 38.53234375 -4.4459375 38.53234375 -5.9609375 38.02734375 C-5.9609375 37.03734375 -5.9609375 36.04734375 -5.9609375 35.02734375 C-8.10507639 35.84773149 -8.10507639 35.84773149 -8.87890625 37.88671875 C-10.69150084 41.47264596 -13.63255237 43.84175179 -16.9609375 46.02734375 C-19.8984375 46.40234375 -19.8984375 46.40234375 -21.9609375 46.02734375 C-21.9609375 45.36734375 -21.9609375 44.70734375 -21.9609375 44.02734375 C-20.9709375 44.02734375 -19.9809375 44.02734375 -18.9609375 44.02734375 C-19.6003125 42.95484375 -20.2396875 41.88234375 -20.8984375 40.77734375 C-25.00629992 33.88673582 -25.16445338 25.80577187 -23.9609375 18.02734375 C-21.65443994 14.05923837 -18.6402781 11.70872621 -14.9609375 9.02734375 C-14.42049805 8.61162109 -13.88005859 8.19589844 -13.32324219 7.76757812 C-11.61548686 6.45392018 -9.88966725 5.17124615 -8.1484375 3.90234375 C-7.32243042 3.29737061 -7.32243042 3.29737061 -6.47973633 2.68017578 C-2.62606684 0.03661846 -2.62606684 0.03661846 0 0 Z " fill="#D3A000" transform="translate(85.9609375,47.97265625)"/>
<path d="M0 0 C0.99 0.33 1.98 0.66 3 1 C2.59476318 3.73534855 1.97756912 5.02707175 0.1875 7.1875 C-5.61850404 14.65236234 -6.91601488 22.77186355 -8 32 C-7.34 32 -6.68 32 -6 32 C-6.0825 30.96875 -6.165 29.9375 -6.25 28.875 C-5.95757268 24.34237647 -4.93164982 22.42025812 -2 19 C0.25 18.125 0.25 18.125 2 18 C2.73221297 23.97973928 2.73221297 23.97973928 0.69921875 26.8125 C-0.39170086 27.97892479 -1.49070881 29.13783717 -2.59765625 30.2890625 C-4.57223334 32.69815656 -4.85092369 34.94393574 -5 38 C-4.34 38 -3.68 38 -3 38 C-3.0825 37.278125 -3.165 36.55625 -3.25 35.8125 C-2.92573441 32.16451206 -1.42680413 30.65431702 1 28 C6.75 28.75 6.75 28.75 9 31 C9.125 33.625 9.125 33.625 9 36 C7.02 36.495 7.02 36.495 5 37 C5 36.01 5 35.02 5 34 C3.68 34.66 2.36 35.32 1 36 C1 40.29 1 44.58 1 49 C1.66 47.02 2.32 45.04 3 43 C4 42 4 42 6.5625 41.9375 C7.366875 41.958125 8.17125 41.97875 9 42 C8.11223998 45.69900008 7.05418136 49.34550461 6 53 C6.66 53 7.32 53 8 53 C8.165 53.886875 8.33 54.77375 8.5 55.6875 C10.35921628 59.79326928 12.31725174 60.73501807 16.22265625 62.7265625 C18 64 18 64 18.74609375 66.1484375 C18.82988281 66.75945312 18.91367187 67.37046875 19 68 C9.20375581 65.6798369 0.62660701 58.12732123 -5 50 C-10.03755605 40.05020025 -12.8925689 30.29994072 -10.3515625 19.15625 C-7.98246916 12.10971597 -4.198207 6.09683432 0 0 Z " fill="#503C00" transform="translate(44,66)"/>
<path d="M0 0 C0.3125 2.1875 0.3125 2.1875 0 5 C-1.14280532 6.14280532 -2.29497364 7.2780247 -3.49609375 8.359375 C-11.23221654 16.79878168 -13.45307334 27.37770915 -13.2421875 38.4375 C-12.56314564 48.42598667 -9.16834117 55.2265636 -3 63 C-2.11054687 64.2375 -2.11054687 64.2375 -1.203125 65.5 C1.44793748 68.50829785 4.43729436 70.53128955 7.8125 72.625 C8.69905273 73.19734375 8.69905273 73.19734375 9.60351562 73.78125 C15.20570569 77.32461995 20.86390334 80.0168595 27.4375 81.1875 C28.73494141 81.42533203 28.73494141 81.42533203 30.05859375 81.66796875 C30.69925781 81.77753906 31.33992188 81.88710937 32 82 C31.34 83.32 30.68 84.64 30 86 C14.7299758 84.34918657 2.27163877 75.88618127 -8 65 C-16.50506049 53.65991935 -18.79339668 41.89860968 -18 28 C-17.36036278 24.47729209 -16.35616033 21.30785193 -15 18 C-14.74476562 17.32839844 -14.48953125 16.65679687 -14.2265625 15.96484375 C-12.03665342 10.91198014 -5.8794835 0 0 0 Z " fill="#543F00" transform="translate(44,59)"/>
<path d="M0 0 C0.99 0.33 1.98 0.66 3 1 C3 1.66 3 2.32 3 3 C3.99 3.33 4.98 3.66 6 4 C15.12715724 15.09659024 18.15218364 27.89447907 17 42 C15.18617189 55.27191301 6.994767 66.50353445 -3 75 C-5.89533173 76.91162883 -8.89136363 78.46757362 -12 80 C-13.00546875 80.57234375 -13.00546875 80.57234375 -14.03125 81.15625 C-18.95957559 83.89420866 -23.38825933 84.74019719 -29 85 C-28.76953125 83.08203125 -28.76953125 83.08203125 -28 81 C-26.13671875 80.19921875 -26.13671875 80.19921875 -23.6875 79.6875 C-9.92268476 76.05895272 0.87652104 67.09580833 8 55 C13.10796754 45.41504915 13.51988047 34.32960108 11.33984375 23.81640625 C9.40990192 17.92632403 6.30409477 13.11918237 2.5859375 8.19140625 C1.1194246 6.16501774 -0.08139672 4.32614058 -1 2 C-0.67 1.34 -0.34 0.68 0 0 Z " fill="#513D00" transform="translate(128,59)"/>
<path d="M0 0 C0.33 0.66 0.66 1.32 1 2 C1.99 1.67 2.98 1.34 4 1 C4 2.32 4 3.64 4 5 C5.258125 5.185625 6.51625 5.37125 7.8125 5.5625 C8.52019531 5.66691406 9.22789063 5.77132812 9.95703125 5.87890625 C12.2025342 6.13904799 12.2025342 6.13904799 15 5 C15.66 5.33 16.32 5.66 17 6 C17.33 5.34 17.66 4.68 18 4 C18.08086147 5.79093191 18.13912702 7.58289628 18.1875 9.375 C18.23970703 10.87160156 18.23970703 10.87160156 18.29296875 12.3984375 C18.19628906 13.25695312 18.09960938 14.11546875 18 15 C17.01 15.66 16.02 16.32 15 17 C14.32255932 18.32789169 13.65658507 19.66167333 13 21 C10.07294841 24.2145957 7.45148959 26.81470346 3.0625 27.375 C2.381875 27.25125 1.70125 27.1275 1 27 C1 26.34 1 25.68 1 25 C1.99 25 2.98 25 4 25 C3.01773438 23.55947266 3.01773438 23.55947266 2.015625 22.08984375 C-0.5522709 17.59602592 -0.46218878 13.62646682 -0.25 8.5625 C-0.23195312 7.73556641 -0.21390625 6.90863281 -0.1953125 6.05664062 C-0.1486214 4.03725067 -0.07689393 2.01846555 0 0 Z " fill="#DCA800" transform="translate(63,67)"/>
<path d="M0 0 C-0.16015625 2.296875 -0.16015625 2.296875 -1 5 C-3.37109375 6.703125 -3.37109375 6.703125 -6.4375 8.25 C-15.2128482 13.06127553 -22.69173915 18.79598818 -27 28 C-27.66 28 -28.32 28 -29 28 C-30.97571842 18.96814435 -30.97571842 18.96814435 -28.859375 14.69921875 C-24.50735361 9.46255749 -18.99086004 6.10171947 -13 3 C-12.34515625 2.65839844 -11.6903125 2.31679688 -11.015625 1.96484375 C-7.2387265 0.16831017 -4.15520372 -0.3040393 0 0 Z " fill="#C99300" transform="translate(80,33)"/>
<path d="M0 0 C10.05472716 0.85572146 17.51222657 5.42290172 25 12 C25.56460938 12.47308594 26.12921875 12.94617187 26.7109375 13.43359375 C28.99155472 15.65751054 29.98327797 17.41472879 30.07421875 20.59765625 C29.83797693 23.1046403 29.49269329 25.53165538 29 28 C28.34 28 27.68 28 27 28 C25.84375 26.34765625 25.84375 26.34765625 24.5 24.0625 C19.1014899 15.7419808 12.16148939 9.89344045 2.93359375 6.265625 C1 5 1 5 0.22265625 2.359375 C0.14917969 1.58078125 0.07570313 0.8021875 0 0 Z " fill="#C89300" transform="translate(91,33)"/>
<path d="M0 0 C0.75 2.125 0.75 2.125 1 4 C0.34 4 -0.32 4 -1 4 C-0.67 5.32 -0.34 6.64 0 8 C-4.866848 10.66891665 -8.70306788 9.79058688 -14 9 C-14.33 11.97 -14.66 14.94 -15 18 C-15.66 18 -16.32 18 -17 18 C-19.34759358 6.26203209 -19.34759358 6.26203209 -16.25 1.0625 C-11.91065461 -2.91523327 -4.90917184 -3.63642359 0 0 Z " fill="#C39300" transform="translate(105,64)"/>
<path d="M0 0 C2.87305972 1.40460697 4.74510999 2.74510999 7 5 C7.1953125 8.0390625 7.1953125 8.0390625 7.125 11.625 C7.10695313 12.81351563 7.08890625 14.00203125 7.0703125 15.2265625 C7.04710938 16.14179687 7.02390625 17.05703125 7 18 C6.34 18 5.68 18 5 18 C4.67 15.69 4.34 13.38 4 11 C3.39671875 11.09539062 2.7934375 11.19078125 2.171875 11.2890625 C0.97304687 11.45535156 0.97304687 11.45535156 -0.25 11.625 C-1.03890625 11.74101563 -1.8278125 11.85703125 -2.640625 11.9765625 C-5.32152459 12.00319395 -6.72694089 11.36592084 -9 10 C-9 8.68 -9 7.36 -9 6 C-9.66 6 -10.32 6 -11 6 C-8.72940276 -0.32523518 -6.6604015 -0.45155264 0 0 Z " fill="#C09000" transform="translate(76,62)"/>
<path d="M0 0 C9.46433075 1.85449724 17.45070235 10.23063128 23 17.6875 C24.12992704 20.30045629 24.24158533 22.18150448 24 25 C23.01 25 22.02 25 21 25 C19.6328125 23.3828125 19.6328125 23.3828125 18.125 21.125 C12.80518648 13.92156152 5.38953676 8.92635784 -2 4 C-1.34 2.68 -0.68 1.36 0 0 Z " fill="#CC9700" transform="translate(92,42)"/>
<path d="M0 0 C0.33 1.32 0.66 2.64 1 4 C0.29875 4.49628906 -0.4025 4.99257813 -1.125 5.50390625 C-13.43921066 14.04366719 -13.43921066 14.04366719 -22 26 C-22.99 25.67 -23.98 25.34 -25 25 C-25.14407903 18.37236468 -22.08403859 15.12196759 -17.625 10.44140625 C-6.3984 0 -6.3984 0 0 0 Z " fill="#CA9600" transform="translate(80,42)"/>
<path d="M0 0 C0.44988281 0.37511719 0.89976563 0.75023438 1.36328125 1.13671875 C10.47211473 8.49320235 10.47211473 8.49320235 21.4921875 10.78125 C26.87463812 9.1139589 31.7575943 6.2424057 35.75 2.25 C36.36875 1.63125 36.36875 1.63125 37 1 C37.66 1 38.32 1 39 1 C38.1577263 6.06458079 34.95463559 8.07700848 31 11 C25.45621424 14.61551245 20.28685028 14.89612125 13.92578125 13.56640625 C8.44429291 11.83257595 3.61957506 8.47633618 0 4 C0 2.68 0 1.36 0 0 Z " fill="#D2A000" transform="translate(66,112)"/>
<path d="M0 0 C-1.15173355 2.46800047 -2.04783565 4.04783565 -4 6 C-6.125 5.625 -6.125 5.625 -8 5 C-8 4.01 -8 3.02 -8 2 C-10.97 2 -13.94 2 -17 2 C-17.33 3.32 -17.66 4.64 -18 6 C-20.78211944 5.62403791 -22.5879284 5.32681541 -24.8125 3.5625 C-26 2 -26 2 -26 0 C-22.25276648 -1.24907784 -18.59855644 -1.4382823 -14.6875 -1.6875 C-13.94048828 -1.74744141 -13.19347656 -1.80738281 -12.42382812 -1.86914062 C-7.80215675 -2.16534959 -4.36401753 -1.81082444 0 0 Z " fill="#D5A300" transform="translate(98,98)"/>
<path d="M0 0 C8.03898786 0.80851889 15.43226029 4.73348471 20.6875 10.875 C21.450625 11.90625 22.21375 12.9375 23 14 C22.67 14.66 22.34 15.32 22 16 C21.35675781 15.54109375 20.71351562 15.0821875 20.05078125 14.609375 C13.00094273 9.82232345 6.23725382 7.10842268 -2 5 C-1.125 1.125 -1.125 1.125 0 0 Z " fill="#BB8600" transform="translate(94,25)"/>
<path d="M0 0 C0.66 1.32 1.32 2.64 2 4 C1.43152344 4.18175781 0.86304687 4.36351562 0.27734375 4.55078125 C-7.14963025 6.96857746 -13.83060226 9.68575557 -20.30078125 14.109375 C-20.86152344 14.40328125 -21.42226563 14.6971875 -22 15 C-22.66 14.67 -23.32 14.34 -24 14 C-18.17746899 6.34690052 -10.15656337 -0.58037505 0 0 Z " fill="#BE8800" transform="translate(78,25)"/>
<path d="M0 0 C0.99 0 1.98 0 3 0 C2.34340707 5.24374903 0.35026391 7.08719212 -3.60546875 10.3515625 C-8.68096855 13.84562599 -13.82813528 16 -20 16 C-19.859375 14.15625 -19.859375 14.15625 -19 12 C-16.453125 10.65625 -16.453125 10.65625 -13.25 9.5 C-7.47465423 7.39470154 -3.46114243 5.19171365 0 0 Z " fill="#D1A000" transform="translate(107,118)"/>
<path d="M0 0 C3 0 3 0 4.6875 1.375 C6 3 6 3 6 5 C7.0828125 5.4021875 7.0828125 5.4021875 8.1875 5.8125 C11 7 11 7 13.375 8.5 C16.48238445 10.27564826 19.54363613 11.11896607 23 12 C23 13.32 23 14.64 23 16 C14.32714844 15.24747492 8.49119904 11.6910686 2 6 C0 3 0 3 0 0 Z " fill="#D3A100" transform="translate(61,118)"/>
<path d="M0 0 C0.99 0.33 1.98 0.66 3 1 C2.59476318 3.73534855 1.97756912 5.02707175 0.1875 7.1875 C-3.59564712 12.0515463 -6.20660002 17.85115012 -7 24 C-7.66 23.67 -8.32 23.34 -9 23 C-9.33 26.63 -9.66 30.26 -10 34 C-10.33 34 -10.66 34 -11 34 C-11.86383551 20.25061818 -7.70654427 11.19180726 0 0 Z " fill="#513D00" transform="translate(44,66)"/>
<path d="M0 0 C2.67646023 1.33823012 4.185976 2.60289686 6 5 C6.78867467 10.07005143 5.14912995 13.52264593 3 18 C2.34 17.67 1.68 17.34 1 17 C1.165 16.484375 1.33 15.96875 1.5 15.4375 C2.28441199 11.61349155 2.77854287 7.55708573 1 4 C0.01 3.67 -0.98 3.34 -2 3 C-3.74706142 8.24118425 -3.32791716 13.68833136 -2 19 C-5.00496561 17.49751719 -5.37655231 15.19933549 -6.453125 12.12890625 C-7.24206928 9.05765887 -7.01936506 6.99013751 -6 4 C-3.02564103 0 -3.02564103 0 0 0 Z " fill="#B17E00" transform="translate(86,9)"/>
<path d="M0 0 C0.75 2.125 0.75 2.125 1 4 C0.15115234 3.76023437 0.15115234 3.76023437 -0.71484375 3.515625 C-3.05284773 2.98807538 -5.16832549 2.79861268 -7.5625 2.75 C-8.32691406 2.72421875 -9.09132813 2.6984375 -9.87890625 2.671875 C-12.05171736 2.85106701 -12.05171736 2.85106701 -13.734375 4.19140625 C-15.38968582 6.55686585 -15.50150688 8.32320591 -15.6875 11.1875 C-15.75324219 12.08855469 -15.81898437 12.98960938 -15.88671875 13.91796875 C-15.92410156 14.60503906 -15.96148437 15.29210937 -16 16 C-18.19560968 12.05668502 -18.72516998 8.4571423 -18 4 C-16.31306955 1.16836674 -15.16899647 -0.49343486 -12.125 -1.8125 C-3.47700394 -2.57555848 -3.47700394 -2.57555848 0 0 Z " fill="#554000" transform="translate(105,64)"/>
<path d="M0 0 C2.87305972 1.40460697 4.74510999 2.74510999 7 5 C7.1953125 7.8203125 7.1953125 7.8203125 7.125 11.125 C7.10695313 12.22070312 7.08890625 13.31640625 7.0703125 14.4453125 C7.04710938 15.28835937 7.02390625 16.13140625 7 17 C6.67 17 6.34 17 6 17 C5.97421875 16.38511719 5.9484375 15.77023438 5.921875 15.13671875 C5.6463857 10.22455999 5.6463857 10.22455999 3.5 5.9375 C-1.24901639 4.15661885 -6.23228614 4.41076205 -11 6 C-8.72940276 -0.32523518 -6.6604015 -0.45155264 0 0 Z " fill="#523D00" transform="translate(76,62)"/>
<path d="M0 0 C1.39300182 1.95890881 2.72245446 3.9639118 4 6 C5.31558703 7.02323436 6.64377755 8.03126968 8 9 C8 9.66 8 10.32 8 11 C2.48364034 9.62091009 -1.86958227 6.8578521 -6 3 C-6 2.34 -6 1.68 -6 1 C-4 0 -4 0 0 0 Z " fill="#D09F00" transform="translate(58,121)"/>
<path d="M0 0 C2.97 0.495 2.97 0.495 6 1 C4.65166602 5.04500194 2.76735567 5.63621086 -0.875 7.75 C-1.94492188 8.38421875 -3.01484375 9.0184375 -4.1171875 9.671875 C-7 11 -7 11 -10 10 C-9.52949219 9.61328125 -9.05898437 9.2265625 -8.57421875 8.828125 C-5.3182388 6.10469664 -2.34546467 3.58718126 0 0 Z " fill="#D19F00" transform="translate(114,121)"/>
<path d="M0 0 C0.66 0.66 1.32 1.32 2 2 C1.9765625 4.1640625 1.9765625 4.1640625 1.625 6.625 C1.51414062 7.44226563 1.40328125 8.25953125 1.2890625 9.1015625 C1.19367188 9.72804688 1.09828125 10.35453125 1 11 C0.01 11 -0.98 11 -2 11 C-2.99 11.66 -3.98 12.32 -5 13 C-5 10.03 -5 7.06 -5 4 C-3.68 4 -2.36 4 -1 4 C-0.67 2.68 -0.34 1.36 0 0 Z " fill="#725600" transform="translate(118,71)"/>
<path d="M0 0 C1.32 0.66 2.64 1.32 4 2 C4 3.98 4 5.96 4 8 C1.625 8.625 1.625 8.625 -1 9 C-1.66 8.34 -2.32 7.68 -3 7 C-2.67028521 3.70285207 -2.3773161 2.3773161 0 0 Z " fill="#A37700" transform="translate(85,34)"/>
<path d="M0 0 C1.875 1.5625 1.875 1.5625 3 3 C-2.04097484 5.44847349 -4.8445689 4.71847703 -10 3 C-10 2.34 -10 1.68 -10 1 C-6.42704846 -1.33616062 -4.05773972 -1.12235354 0 0 Z " fill="#5A4400" transform="translate(102,69)"/>
<path d="M0 0 C2.3125 1 2.3125 1 4 2 C4 2.66 4 3.32 4 4 C1.5428064 5.5471219 0.367721 6.04484402 -2.5625 5.6875 C-4.38901612 5.17232879 -6.19960942 4.60013019 -8 4 C-7.67 3.01 -7.34 2.02 -7 1 C-4.46130539 -0.26934731 -2.82098771 -0.20149912 0 0 Z " fill="#584200" transform="translate(75,68)"/>
<path d="M0 0 C1.32 0 2.64 0 4 0 C3.01 3.63 2.02 7.26 1 11 C0.34 10.67 -0.32 10.34 -1 10 C-1.33 13.63 -1.66 17.26 -2 21 C-2.33 21 -2.66 21 -3 21 C-3.34855655 13.37048445 -3.0017506 7.07555499 0 0 Z " fill="#6A5000" transform="translate(36,79)"/>
<path d="M0 0 C1.98 0 3.96 0 6 0 C6 0.66 6 1.32 6 2 C6.99 2.66 7.98 3.32 9 4 C3.72 4 -1.56 4 -7 4 C-7 3.67 -7 3.34 -7 3 C-5.5459375 2.814375 -5.5459375 2.814375 -4.0625 2.625 C-2.5465625 2.315625 -2.5465625 2.315625 -1 2 C-0.67 1.34 -0.34 0.68 0 0 Z " fill="#876600" transform="translate(83,93)"/>
<path d="M0 0 C0.33 0 0.66 0 1 0 C1.0809723 2.43816585 1.14046972 4.87364384 1.1875 7.3125 C1.22520508 8.34793945 1.22520508 8.34793945 1.26367188 9.40429688 C1.33834499 14.55674183 1.33834499 14.55674183 -0.51171875 16.98046875 C-1.00285156 17.31691406 -1.49398437 17.65335938 -2 18 C-3.32979529 14.01061414 -2.18256074 12.00756694 -1 8 C-0.57151199 5.33592236 -0.28265629 2.68523474 0 0 Z " fill="#DCA900" transform="translate(139,90)"/>
<path d="M0 0 C0.66 0.66 1.32 1.32 2 2 C1.2575 2.6496875 1.2575 2.6496875 0.5 3.3125 C-1.33218192 4.99740483 -1.33218192 4.99740483 -1 8 C-1.66 8 -2.32 8 -3 8 C-3.33 11.96 -3.66 15.92 -4 20 C-4.33 20 -4.66 20 -5 20 C-5.13572155 17.60225255 -5.23436868 15.21224755 -5.3125 12.8125 C-5.35439453 12.13896484 -5.39628906 11.46542969 -5.43945312 10.77148438 C-5.53929382 6.67801586 -5.15925343 5.18888197 -2.48046875 2.01171875 C-1.66191406 1.34785156 -0.84335938 0.68398438 0 0 Z " fill="#C49300" transform="translate(67,61)"/>
<path d="M0 0 C1.32 0.33 2.64 0.66 4 1 C1.525 5.455 1.525 5.455 -1 10 C-1.66 9.01 -2.32 8.02 -3 7 C-2.21069203 4.51064409 -1.1651105 2.330221 0 0 Z " fill="#CD9B00" transform="translate(38,69)"/>
<path d="M0 0 C1.25042068 4.14201849 1.03173318 8.05614012 0.9375 12.34375 C0.99418931 14.75304585 1.30690941 16.70413742 2 19 C0.68 19 -0.64 19 -2 19 C-1.85913398 16.39547729 -1.71251536 13.79149803 -1.5625 11.1875 C-1.50352539 10.08051758 -1.50352539 10.08051758 -1.44335938 8.95117188 C-1.25618965 5.76928658 -1.01279207 3.03837622 0 0 Z " fill="#B58600" transform="translate(46,44)"/>
<path d="M0 0 C2.28062828 3.42094242 2.21925007 4.68187222 2.125 8.6875 C2.10695312 9.68136719 2.08890625 10.67523438 2.0703125 11.69921875 C2.03550781 12.83810547 2.03550781 12.83810547 2 14 C-0.87136623 11.12863377 -0.8308736 7.88990718 -1 4 C-0.5625 1.5 -0.5625 1.5 0 0 Z " fill="#B78C00" transform="translate(133,84)"/>
<path d="M0 0 C2.31 1.65 4.62 3.3 7 5 C6.34 6.32 5.68 7.64 5 9 C2.5 6.75 2.5 6.75 0 4 C0 2.68 0 1.36 0 0 Z " fill="#C39500" transform="translate(66,112)"/>
<path d="M0 0 C0.66 0 1.32 0 2 0 C1.88637738 1.4800841 1.75877092 2.95910074 1.625 4.4375 C1.52058594 5.67306641 1.52058594 5.67306641 1.4140625 6.93359375 C1.27742188 7.61550781 1.14078125 8.29742187 1 9 C0.01 9.495 0.01 9.495 -1 10 C-1.02689216 8.52093108 -1.04634621 7.04172517 -1.0625 5.5625 C-1.07410156 4.73878906 -1.08570312 3.91507812 -1.09765625 3.06640625 C-1 1 -1 1 0 0 Z " fill="#CF9D00" transform="translate(114,74)"/>
<path d="M0 0 C0.99 0.33 1.98 0.66 3 1 C3 3.97 3 6.94 3 10 C2.34 9.67 1.68 9.34 1 9 C0.5859375 6.93359375 0.5859375 6.93359375 0.375 4.4375 C0.30023438 3.61121094 0.22546875 2.78492187 0.1484375 1.93359375 C0.09945312 1.29550781 0.05046875 0.65742187 0 0 Z " fill="#C99900" transform="translate(55,74)"/>
<path d="M0 0 C0.66 0.33 1.32 0.66 2 1 C1.67 1.99 1.34 2.98 1 4 C-4.625 5.125 -4.625 5.125 -8 4 C-7.67 3.34 -7.34 2.68 -7 2 C-5.34385343 1.61781233 -3.67542976 1.28604898 -2 1 C-1.34 0.67 -0.68 0.34 0 0 Z " fill="#574200" transform="translate(111,129)"/>
<path d="M0 0 C4.92307692 4.18461538 4.92307692 4.18461538 5.3125 8.3125 C5.209375 9.199375 5.10625 10.08625 5 11 C3.78483364 9.17725047 2.60668208 7.3280819 1.5 5.4375 C0.0902355 2.93582181 0.0902355 2.93582181 -2 1 C-1.34 0.67 -0.68 0.34 0 0 Z " fill="#BD9000" transform="translate(127,93)"/>
<path d="M0 0 C0.99 0 1.98 0 3 0 C3 1.98 3 3.96 3 6 C1.68 5.67 0.36 5.34 -1 5 C-0.67 3.35 -0.34 1.7 0 0 Z " fill="#4E3A00" transform="translate(84,51)"/>
<path d="M0 0 C2 0.6875 2 0.6875 4 2.6875 C3.34 2.6875 2.68 2.6875 2 2.6875 C2 4.3375 2 5.9875 2 7.6875 C1.67 7.6875 1.34 7.6875 1 7.6875 C1 6.0375 1 4.3875 1 2.6875 C-0.32 3.0175 -1.64 3.3475 -3 3.6875 C-3.33 2.6975 -3.66 1.7075 -4 0.6875 C-2 -0.3125 -2 -0.3125 0 0 Z " fill="#B18200" transform="translate(86,48.3125)"/>
<path d="M0 0 C0.66 0.33 1.32 0.66 2 1 C1.34 3.64 0.68 6.28 0 9 C-0.66 9 -1.32 9 -2 9 C-2.25 3.375 -2.25 3.375 0 0 Z " fill="#AA8200" transform="translate(41,95)"/>
<path d="M0 0 C0.66 0.33 1.32 0.66 2 1 C0.41641358 4.16717283 -0.45263699 5.73268318 -3.6875 7.3125 C-4.450625 7.539375 -5.21375 7.76625 -6 8 C-2.25 2.25 -2.25 2.25 0 0 Z " fill="#B18000" transform="translate(60,32)"/>
<path d="M0 0 C-1.39332574 3.36720387 -2.9789286 4.9859524 -6 7 C-6 5.68 -6 4.36 -6 3 C-2.78571429 0 -2.78571429 0 0 0 Z " fill="#F27A07" transform="translate(138,126)"/>
<path d="M0 0 C0.99 0.33 1.98 0.66 3 1 C2.67 2.32 2.34 3.64 2 5 C1.01 5 0.02 5 -1 5 C-1.99 5.495 -1.99 5.495 -3 6 C-2 4 -1 2 0 0 Z " fill="#684E00" transform="translate(44,66)"/>
<path d="M0 0 C1.65 1.32 3.3 2.64 5 4 C4.34 5.32 3.68 6.64 3 8 C2.9175 7.21625 2.835 6.4325 2.75 5.625 C2.27193661 2.85250896 2.27193661 2.85250896 -0.0625 1.6875 C-0.701875 1.460625 -1.34125 1.23375 -2 1 C-1.34 0.67 -0.68 0.34 0 0 Z " fill="#BE8E00" transform="translate(103,61)"/>
<path d="M0 0 C3 1 3 1 3 1 Z " fill="#FFC600" transform="translate(97,149)"/>
<path d="" fill="#FF0000" transform="translate(0,0)"/>
<path d="" fill="#AAAA00" transform="translate(0,0)"/>
<path d="" fill="#FF0000" transform="translate(0,0)"/>
<path d="" fill="#FFFF00" transform="translate(0,0)"/>
<path d="" fill="#FF0000" transform="translate(0,0)"/>
<path d="" fill="#FF0000" transform="translate(0,0)"/>
<path d="" fill="#FFFF00" transform="translate(0,0)"/>
<path d="" fill="#FFFF00" transform="translate(0,0)"/>
<path d="" fill="#FF0000" transform="translate(0,0)"/>
<path d="" fill="#FF0000" transform="translate(0,0)"/>
<path d="" fill="#FF0000" transform="translate(0,0)"/>
<path d="" fill="#000000" transform="translate(0,0)"/>
<path d="" fill="#000000" transform="translate(0,0)"/>
</svg>
